<?xml version="1.0" standalone="no"?>
<!DOCTYPE svg PUBLIC "-//W3C//DTD SVG 20010904//EN"
 "http://www.w3.org/TR/2001/REC-SVG-20010904/DTD/svg10.dtd">
<svg version="1.0" xmlns="http://www.w3.org/2000/svg"
 width="300.000000pt" height="162.000000pt" viewBox="0 0 300.000000 162.000000"
 preserveAspectRatio="xMidYMid meet">
<metadata>
Created by potrace 1.10, written by Peter Selinger 2001-2011
</metadata>
<g transform="translate(0.000000,162.000000) scale(0.100000,-0.100000)"
fill="#000000" stroke="none">
<path d="M1295 1573 c-305 -25 -588 -99 -805 -208 -392 -198 -543 -499 -388
-774 40 -70 172 -204 258 -260 204 -133 505 -231 835 -272 146 -18 493 -15
645 5 320 43 600 137 805 271 94 61 226 199 264 276 92 188 56 370 -107 541
-215 224 -596 374 -1067 418 -102 9 -346 11 -440 3z m525 -38 c176 -29 270
-52 270 -66 0 -5 7 -5 17 -2 12 5 14 3 8 -7 -6 -10 -4 -12 7 -7 9 3 19 2 24
-2 5 -5 54 -23 109 -41 295 -95 519 -253 605 -425 33 -67 35 -75 35 -175 0
-103 -1 -106 -40 -180 -144 -270 -561 -465 -1110 -521 -118 -11 -576 -9 -568
4 2 4 -5 7 -17 7 -13 0 -19 -4 -14 -12 5 -7 3 -8 -5 -4 -7 5 -39 10 -72 12
-33 2 -87 11 -122 20 -34 8 -73 17 -87 20 -14 3 -34 8 -45 11 -11 4 -24 8 -30
9 -5 1 -50 17 -100 34 -274 96 -484 253 -570 426 -39 76 -40 82 -40 179 0 91
3 106 31 166 17 36 53 93 79 127 168 216 559 385 1010 437 152 18 492 12 625
-10z"/>
<path d="M1310 1513 c-365 -26 -705 -129 -933 -281 -68 -45 -187 -162 -207
-204 -8 -16 -4 -13 12 7 105 137 313 269 548 348 239 80 435 111 768 121 62 2
116 7 119 10 6 6 -221 5 -307 -1z"/>
<path d="M1322 1385 c-11 -13 -23 -48 -27 -77 -5 -29 -9 -55 -10 -58 0 -3 -7
-35 -14 -72 -14 -71 -26 -82 -55 -49 -9 10 -45 31 -79 47 -61 28 -66 28 -277
32 -198 4 -217 3 -238 -14 -25 -20 -30 -41 -82 -314 -16 -85 -43 -222 -60
-303 -16 -81 -30 -163 -30 -181 0 -51 28 -70 111 -74 127 -8 161 10 174 88 15
90 18 101 36 110 10 6 49 10 88 10 91 0 163 15 232 50 58 29 69 29 69 0 0 -38
32 -50 134 -50 53 0 106 5 116 10 25 13 45 90 76 290 7 48 22 102 32 118 9 13
77 23 100 14 16 -6 15 -52 -2 -126 -23 -95 -46 -221 -46 -248 0 -42 29 -58
102 -58 106 0 110 -6 86 -111 -12 -50 -11 -52 16 -75 24 -21 37 -24 116 -24
115 0 134 14 155 115 9 41 22 75 32 83 10 7 43 12 78 11 212 -4 368 97 422
275 24 77 21 201 -5 253 -40 78 -100 121 -200 142 -29 6 -135 11 -236 11 -170
0 -185 -1 -210 -21 -14 -11 -26 -27 -26 -35 0 -19 -4 -18 -74 16 -48 23 -80
31 -151 36 -49 4 -94 9 -99 12 -8 4 -4 63 8 119 3 13 -4 33 -15 48 -20 24 -25
25 -124 25 -98 0 -105 -1 -123 -25z m222 -1 c23 -9 21 -46 -9 -181 -5 -23 -4
-23 99 -23 152 0 218 -29 254 -110 l15 -35 11 60 c7 33 15 66 19 73 12 19 407
17 473 -3 62 -18 116 -63 143 -118 25 -52 28 -159 7 -232 -32 -105 -125 -204
-226 -240 -27 -10 -94 -19 -166 -22 l-122 -6 -18 -96 -19 -96 -108 -3 c-94 -2
-108 0 -114 14 -6 16 8 116 22 169 6 19 2 20 -93 17 -77 -3 -101 0 -111 11 -9
12 -4 54 25 205 20 105 34 198 31 206 -5 13 -23 16 -85 16 l-78 0 -40 -207
c-21 -113 -45 -212 -52 -220 -20 -19 -195 -18 -212 2 -12 14 -11 21 16 145 5
23 5 23 -14 -6 -31 -48 -100 -102 -161 -125 -41 -15 -89 -22 -177 -26 l-121
-6 -12 -75 c-22 -129 -14 -122 -136 -122 -86 0 -107 3 -111 15 -6 15 130 746
147 793 8 22 10 22 223 22 192 0 221 -2 270 -20 59 -22 121 -81 132 -125 3
-14 9 -25 13 -25 3 0 21 80 39 177 18 97 37 183 44 190 11 14 170 19 202 7z"/>
<path d="M1445 1352 l-81 -3 -72 -372 c-40 -205 -72 -376 -72 -382 0 -6 34
-10 80 -10 l80 0 6 30 c3 17 22 116 42 220 l37 190 60 3 c91 5 143 -5 161 -32
13 -22 12 -39 -21 -203 -19 -98 -35 -186 -35 -194 0 -11 17 -14 82 -12 l82 1
38 194 c42 218 44 235 23 284 -23 57 -82 77 -237 82 -71 2 -128 6 -128 7 0 2
9 47 20 100 11 54 19 99 18 99 -2 1 -39 0 -83 -2z m20 -126 c-7 -81 -6 -85 16
-99 16 -10 61 -16 139 -19 211 -8 226 -28 186 -250 -15 -79 -31 -162 -37 -185
-11 -41 -13 -43 -50 -43 -47 0 -47 -5 -14 160 13 69 25 143 25 165 0 81 -52
115 -175 115 -70 0 -79 -2 -104 -28 -25 -24 -32 -47 -60 -197 -45 -237 -37
-215 -82 -215 -31 0 -39 4 -39 18 0 19 117 629 125 650 2 6 21 12 41 12 l36 0
-7 -84z"/>
<path d="M581 783 c-40 -203 -74 -376 -77 -385 -5 -16 3 -18 80 -18 47 0 86 2
86 4 0 8 31 172 36 188 4 14 25 17 142 20 164 4 215 22 287 99 60 65 87 127
93 215 6 90 -8 133 -58 178 -61 55 -115 66 -331 66 l-187 0 -71 -367z m522
298 c67 -33 91 -81 85 -172 -9 -115 -71 -209 -167 -252 -36 -17 -74 -22 -178
-26 -159 -7 -167 -12 -189 -116 -17 -80 -28 -97 -63 -93 -19 2 -27 9 -29 28
-4 39 117 643 131 652 6 5 91 7 187 6 160 -3 179 -5 223 -27z"/>
<path d="M777 1048 c-19 -19 -29 -51 -50 -161 -32 -166 -33 -179 -6 -203 22
-20 96 -24 191 -10 102 15 179 114 181 234 2 116 -44 154 -195 160 -92 4 -98
3 -121 -20z m240 -38 c50 -32 55 -122 10 -210 -32 -65 -84 -88 -205 -92 -89
-3 -93 -2 -88 17 3 11 18 85 33 164 l27 143 101 -4 c63 -2 108 -9 122 -18z"/>
<path d="M798 868 l-25 -130 71 4 c39 3 86 13 104 22 43 22 71 84 72 153 0 64
-7 68 -116 76 l-80 5 -26 -130z m181 86 c19 -14 22 -23 18 -50 -15 -91 -64
-138 -140 -132 -37 3 -42 6 -42 28 -1 43 25 154 38 162 22 14 102 9 126 -8z"/>
<path d="M1956 1133 c-3 -10 -35 -173 -71 -363 -37 -190 -69 -355 -72 -367 -5
-22 -3 -23 79 -23 l84 0 20 102 19 103 140 5 c127 5 145 8 197 33 175 86 247
340 129 458 -58 58 -111 69 -332 69 -170 0 -188 -2 -193 -17z m404 -34 c129
-28 173 -149 109 -299 -29 -67 -104 -135 -172 -155 -31 -9 -91 -15 -158 -15
-99 0 -110 -2 -136 -24 -23 -20 -32 -38 -42 -93 -14 -76 -24 -93 -55 -93 -50
1 -50 0 14 331 33 173 65 324 70 337 9 21 13 22 164 22 85 0 178 -5 206 -11z"/>
<path d="M2086 1048 c-22 -19 -30 -44 -51 -153 -31 -160 -31 -186 -4 -211 17
-16 35 -19 96 -17 42 0 96 7 121 14 89 25 152 125 152 241 0 50 -4 62 -31 92
-37 43 -79 56 -181 56 -66 0 -81 -3 -102 -22z m217 -31 c49 -21 61 -42 60
-101 -2 -82 -41 -157 -98 -189 -21 -12 -225 -26 -225 -16 0 3 11 60 24 125 13
66 27 136 30 157 l7 37 85 0 c48 0 98 -6 117 -13z"/>
<path d="M2130 997 c0 -3 -8 -47 -19 -98 -10 -52 -21 -109 -25 -128 l-6 -34
72 5 c40 3 87 12 104 21 38 20 66 75 72 143 6 69 -10 84 -91 84 -34 0 -72 3
-84 6 -13 4 -23 4 -23 1z m143 -36 c14 -6 28 -19 32 -30 10 -33 -16 -100 -52
-131 -27 -25 -43 -30 -83 -30 -28 0 -50 5 -52 12 -7 20 30 171 44 179 18 12
81 11 111 0z"/>
</g>
</svg>
